<svg xmlns="http://www.w3.org/2000/svg" viewBox="0 0 64 64" id="Coding-Apps-Website-Web-Dev-Api-Cloud--Streamline-Ultimate" height="64" width="64">
  <desc>
    Coding Apps Website Web Dev Api Cloud Streamline Icon: https://streamlinehq.com
  </desc>
  <g id="Coding-Apps-Website-Web-Dev-Api-Cloud--Streamline-Ultimate.svg">
    <g>
      <path d="M56.18666666666667 59.30666666666666h-1.4666666666666668v-13.333333333333332h1.4666666666666668a2 2 0 0 0 0 -4h-6.959999999999999a2 2 0 0 0 0 4H50.666666666666664v13.333333333333332h-1.4933333333333334a2 2 0 0 0 0 4h6.959999999999999a2 2 0 0 0 0 -4Z" fill="#000000" stroke-width="2.6667"></path>
      <path d="M34.879999999999995 41.89333333333333h-5.333333333333333a2 2 0 0 0 -2 2V61.33333333333333a2 2 0 0 0 4 0v-4.986666666666666h3.2266666666666666a7.226666666666667 7.226666666666667 0 0 0 0 -14.453333333333333Zm0 10.453333333333333h-3.2266666666666666v-6.453333333333333h3.2266666666666666a3.2266666666666666 3.2266666666666666 0 0 1 0 6.453333333333333Z" fill="#000000" stroke-width="2.6667"></path>
      <path d="M20.53333333333333 48a6.959999999999999 6.959999999999999 0 0 0 -6.986666666666666 -6A6.959999999999999 6.959999999999999 0 0 0 6.586666666666667 48l-1.9733333333333332 13.12a2 2 0 1 0 3.9466666666666663 0.5866666666666667l0.6666666666666666 -4.3999999999999995h8.666666666666666L18.666666666666664 61.6a1.9733333333333332 1.9733333333333332 0 0 0 1.9733333333333332 1.7066666666666666h0.29333333333333333a2 2 0 0 0 1.68 -2.2666666666666666Zm-10.666666666666666 5.333333333333333 0.7999999999999999 -4.8533333333333335a3.0666666666666664 3.0666666666666664 0 0 1 6.053333333333333 0L17.28 53.33333333333333Z" fill="#000000" stroke-width="2.6667"></path>
    </g>
    <path d="M62.666666666666664 24.69333333333333a13.333333333333332 13.333333333333332 0 0 0 -13.813333333333333 -13.333333333333332A18.666666666666664 18.666666666666664 0 0 0 13.333333333333332 18.24a10 10 0 0 0 -12 9.786666666666665c0 10.16 10.666666666666666 10 10.666666666666666 10H50.666666666666664s12 -1.5733333333333333 12 -13.333333333333332Z" fill="#000000" stroke-width="2.6667"></path>
  </g>
</svg>